<svg xmlns="http://www.w3.org/2000/svg" viewBox="0 0 106.24 113.87"><defs><style>.cls-1{fill:none;}.cls-2{fill:#9ca1b9;}.cls-3{fill:#b48968;}.cls-4{fill:#c0a85a;}</style></defs><title>erc-icon-rgb</title><g id="Layer_2" data-name="Layer 2"><g id="Layer_1-2" data-name="Layer 1"><rect class="cls-1" width="106.24" height="113.87"/><path class="cls-2" d="M80.09,35.22h0c1.54-.73,1.54-1.92,0-2.66l-31.4-15-5.57,2.66,31.4,15A7.32,7.32,0,0,0,80.09,35.22Z"/><path class="cls-2" d="M99.93,25.75h0c1.54-.73,1.54-1.92,0-2.66L53.12.75,9,21.8C6,23.25,6,25.6,9,27H9L53,6,94.36,25.75A7.32,7.32,0,0,0,99.93,25.75Z"/><path class="cls-2" d="M60.25,44.69h0c1.54-.73,1.54-1.92,0-2.66L28.85,27,23.29,29.7l31.4,15A7.32,7.32,0,0,0,60.25,44.69Z"/><path class="cls-3" d="M49.81,56.73h0A5.7,5.7,0,0,0,47,51.93L.75,29.84V85c0,3.79,2.46,8,5.49,9.48h0v-55L47,58.89C48.57,59.62,49.81,58.66,49.81,56.73Z"/><path class="cls-4" d="M105.48,33.32h0c0-1.92-1.25-2.89-2.78-2.15L56.42,53.25v55.13c0,3.79,2.46,5.69,5.49,4.25h0v-55L102.7,38.13A5.7,5.7,0,0,0,105.48,33.32Z"/><path class="cls-4" d="M105.48,82.92h0c0-1.92-1.25-2.89-2.78-2.15L71.82,95.5v7L102.7,87.73A5.7,5.7,0,0,0,105.48,82.92Z"/></g></g></svg>